<svg width="382" height="226" viewBox="0 0 382 226" fill="none" xmlns="http://www.w3.org/2000/svg">
<path d="M80.8496 152.576C91.8488 129.993 94.0659 118.953 93.6706 114.788C93.5952 113.994 94.2048 112.972 94.994 113.088C97.997 113.531 100.929 115.546 102.55 116.985C102.901 117.296 103.421 117.349 103.821 117.103C113.296 111.261 116.647 113.918 117.135 116.034C117.635 119.034 109.635 128.534 108.635 129.534C108.061 130.108 107.453 130.03 107.032 129.817C106.757 129.677 106.659 129.354 106.69 129.047C106.941 126.569 106.569 125.475 106.261 125.135C106.189 125.055 106.096 124.994 106.018 124.92C104.162 123.184 102.189 124.098 101.286 124.893C101.183 124.983 101.109 125.099 101.059 125.226L89.8856 153.403C89.7345 153.784 89.366 154.034 88.956 154.034H81.7431C81.0022 154.034 80.5252 153.242 80.8496 152.576Z" fill="white"/>
<path d="M345.11 152.815C355.802 130.085 357.869 119.016 357.417 114.858C357.331 114.064 357.927 113.034 358.718 113.14C361.726 113.542 364.685 115.517 366.326 116.933C366.681 117.24 367.202 117.286 367.598 117.034C376.993 111.064 380.38 113.676 380.897 115.785C381.437 118.778 373.567 128.386 372.58 129.399C372.014 129.981 371.405 129.911 370.981 129.704C370.704 129.568 370.602 129.246 370.629 128.938C370.846 126.457 370.46 125.368 370.147 125.033C370.073 124.954 369.98 124.894 369.901 124.821C368.022 123.11 366.061 124.051 365.169 124.858C365.068 124.95 364.995 125.067 364.947 125.194L354.156 153.519C354.01 153.903 353.645 154.158 353.235 154.163L346.023 154.261C345.282 154.271 344.794 153.486 345.11 152.815Z" fill="white"/>
<path d="M45.676 115.596C54.4742 98.6744 76.6894 66.7758 96.9202 71.4659C96.9578 71.4747 96.9948 71.4882 97.0295 71.505C97.6603 71.8112 97.937 71.8254 96.135 74.5011C90.6891 82.5875 79.0103 103.463 74.1213 122.901C74.0454 123.203 74.2622 123.497 74.5735 123.492C77.3189 123.445 81.828 121.98 81.9739 116.266C81.9784 116.09 82.0683 115.922 82.2258 115.845C83.1453 115.393 84.9773 114.928 86.7297 115.841C86.8855 115.922 86.9778 116.087 86.9778 116.263V117.943C86.9778 117.967 86.9763 117.99 86.9729 118.013C86.4599 121.489 82.9193 128.631 72.802 129.94C72.607 129.965 72.4399 130.095 72.3811 130.282C70.0736 137.641 67.2969 151.165 72.6125 152.416C73.0662 152.523 73.3405 153.119 72.9915 153.428C69.4356 156.575 62.7486 159.852 58.0315 153.058C57.9965 153.007 57.9707 152.952 57.9573 152.892C57.3128 150.007 57.025 141.479 60.8254 129.454C60.9081 129.193 60.768 128.909 60.5081 128.822L52.4026 126.121C52.1606 126.041 51.9006 126.147 51.7932 126.378C46.9981 136.709 35.0334 158.162 23.9778 164.48C18.8112 167.48 6.87784 170.179 0.477783 156.98C-0.819426 153.135 0.016864 144.394 9.46021 141.283C9.86168 141.151 10.2258 141.565 10.0862 141.964C9.36259 144.032 8.78251 147.284 10.4778 148.98C12.6447 151.646 18.7781 155.379 25.9778 148.98C30.6239 144.333 40.3909 132.781 42.4504 123.601C42.4685 123.52 42.4669 123.438 42.4377 123.36C42.001 122.208 39.8894 120.774 34.4778 123.48C32.582 124.743 29.0685 128.014 29.3889 131.417C29.4172 131.717 29.2103 132.004 28.9094 131.984C26.98 131.858 23.9779 130.271 23.9778 124.48C23.8111 122.98 24.7778 119.18 29.9778 115.98C31.941 114.834 37.6613 113.24 45.0588 115.829C45.2972 115.913 45.5595 115.82 45.676 115.596ZM79.8743 83.546C80.2833 82.9008 79.8784 82.2097 79.1946 82.5499C75.3828 84.4473 67.2264 93.2059 55.1702 118.363C54.9123 118.902 55.1756 119.559 55.7405 119.752L62.2688 121.985C62.7887 122.163 63.3539 121.89 63.5374 121.372C67.0634 111.407 74.5361 91.9649 79.8743 83.546Z" fill="white"/>
<path d="M141.117 118.724C140.711 122.251 137.23 124.439 135.54 125.092L135.033 125.315V121.663C135.439 117.353 132.499 116.928 130.978 117.255C126.111 118.43 126.922 122.316 127.936 124.112L133.513 134.399C135.135 137.534 135.202 139.624 135.033 140.277C133.006 151.641 123.035 154.156 118.304 153.993C110.193 153.601 107.489 149.258 107.151 147.135C106.745 137.338 114.417 136.195 118.304 136.848C110.193 148.115 123.373 152.033 125.401 144.196C127.429 136.358 113.234 125.092 122.36 116.275C131.485 107.458 141.624 114.316 141.117 118.724Z" fill="white"/>
<path d="M170.562 121.87C167.762 127.47 163.395 128.536 161.562 128.37C165.162 117.97 162.729 117.37 161.062 118.37C149.862 127.17 148.729 137.703 149.562 141.87C153.162 151.47 164.729 140.203 170.062 133.37L184.135 98.5C188.135 88.5 185.895 88.3696 184.062 88.3696C196.062 80.7696 198.395 82.8696 198.062 84.8696L185.562 117.37C199.162 107.37 200.562 115.203 199.562 120.37L189.562 145.37C187.562 150.17 190.062 151.703 191.562 151.87L188.062 153.37C183.662 154.17 181.562 153.036 181.062 152.37C179.462 150.37 180.062 147.536 180.562 146.37L188.562 125.37C189.229 124.203 190.062 121.67 188.062 120.87C186.062 120.07 183.562 123.87 182.562 125.87L171.562 152.87H162.062L166.062 143.87C156.862 154.27 148.229 154.536 145.062 153.37C132.662 144.97 142.562 127.536 149.062 119.87C155.462 111.87 163.395 111.203 166.562 111.87C169.062 112.87 173.362 116.27 170.562 121.87Z" fill="white"/>
<path d="M204.652 122.805C206.381 115.941 206.502 115.35 206.532 114.036C206.537 113.849 206.644 113.679 206.812 113.596L207.462 113.275C207.516 113.248 207.575 113.231 207.635 113.226C212.076 112.814 215.01 113.882 215.496 114.401C215.881 114.812 215.632 116.568 215.452 117.438C215.445 117.468 215.436 117.497 215.425 117.525L208.679 133.805C207.038 138.211 205.599 141.995 205.052 143.422C205.031 143.476 205.021 143.534 205.021 143.593C205.021 146.366 207.32 145.762 208.482 145.104C210.496 143.906 212.037 141.227 212.557 140.038L220.913 118.092C221.546 116.843 221.247 115.295 220.855 114.251C220.72 113.89 220.979 113.469 221.365 113.476L225.477 113.548C227.071 113.576 227.796 113.931 227.959 114.105C229.126 115.769 228.717 118.228 228.367 119.25L220.527 140.177C219.284 143.803 220.904 144.448 221.908 144.318C221.936 144.314 221.964 144.312 221.992 144.312C223.167 144.302 224.758 143.022 225.443 142.348C225.463 142.328 225.481 142.307 225.497 142.284C230.385 135.388 232.72 126.855 233.277 123.446C234.051 119.465 233.826 116.243 233.549 114.715C233.498 114.433 233.674 114.152 233.956 114.102C239.124 113.177 240.403 114.869 240.386 115.864C240.321 119.561 240.311 120.165 239.753 123.559C235.239 140.434 227.186 148.856 224.324 151.032C217.317 156.904 213.259 153.607 211.756 150.629C211.576 150.274 211.063 150.196 210.786 150.481C208.202 153.132 203.846 153.757 201.853 153.722C195.093 152.782 195.829 146.767 197.042 143.877L204.652 122.805Z" fill="white"/>
<path d="M280.684 113.546C282.517 112.379 287.284 110.746 291.684 113.546C292.851 114.212 295.184 116.646 295.184 121.046C295.027 122.306 293.827 125.024 290.322 126.332C290.008 126.449 289.684 126.209 289.684 125.874V121.546C289.684 120.546 288.984 118.546 286.184 118.546C284.017 118.712 280.484 120.446 283.684 126.046L288.662 135.503C288.677 135.531 288.689 135.56 288.698 135.591C289.197 137.286 289.873 141.374 288.684 144.546C288.019 147.041 284.997 152.623 278.226 155.031C278.199 155.041 278.171 155.048 278.142 155.053C277.118 155.219 274.762 155.44 273.184 155.046C271.406 154.601 267.65 152.575 266.84 149.319C266.73 148.877 266.121 148.653 265.806 148.982C263.771 151.111 260.562 154.201 259.184 154.546C257.523 155.15 254.358 154.988 253.777 150.194C253.717 149.703 253.013 149.488 252.702 149.872C251.034 151.931 248.272 154.546 245.684 154.546C243.351 154.712 238.584 153.646 238.184 148.046C238.017 146.379 238.184 141.846 240.184 137.046C242.017 131.879 247.684 120.046 255.684 114.046C257.835 112.663 262.393 111.366 264.66 116.184C264.862 116.615 265.528 116.628 265.695 116.182L266.562 113.87C266.635 113.675 266.822 113.546 267.031 113.546H272.991C273.332 113.546 273.572 113.88 273.464 114.204L273.184 115.046L263.184 142.046C262.764 143.307 262.131 145.771 262.417 146.999C262.489 147.308 262.845 147.297 263.024 147.034C265.327 143.643 270.126 137.946 273.542 138.518C273.635 138.534 273.723 138.581 273.764 138.667C273.908 138.963 274.022 139.696 273.684 141.046C273.184 142.546 272.784 145.946 275.184 147.546C276.517 148.212 279.484 148.546 280.684 144.546C281.017 143.546 281.284 140.846 279.684 138.046L274.203 127.582C274.19 127.558 274.181 127.534 274.172 127.509C273.353 124.984 273.52 118.72 280.684 113.546ZM262.086 122.014C262.495 119.442 260.213 119.87 259.02 120.406C252.887 123.835 248.969 134.335 247.776 139.157C246.958 141.897 247.094 144.585 247.264 145.587C248.491 148.587 251.524 146.122 252.887 144.515C259.429 136.8 261.746 126.299 262.086 122.014Z" fill="white"/>
<path d="M299.255 141.046C299.538 139.913 299.504 139.215 299.401 138.845C299.346 138.649 299.129 138.598 298.944 138.68C292.534 141.501 291.793 146.005 292.242 147.989C292.251 148.028 292.255 148.067 292.256 148.107C292.301 152.071 296.765 154.549 298.755 155.046C300.333 155.441 302.689 155.219 303.713 155.053C303.742 155.048 303.769 155.041 303.797 155.031C310.568 152.623 313.59 147.041 314.255 144.546C315.445 141.374 314.768 137.286 314.269 135.591C314.26 135.56 314.248 135.532 314.233 135.503L309.255 126.046C306.055 120.446 309.589 118.713 311.755 118.546C314.555 118.546 315.255 120.546 315.255 121.546V125.874C315.255 126.209 315.579 126.449 315.893 126.332C319.399 125.024 320.598 122.306 320.755 121.046C320.755 116.646 318.422 114.213 317.255 113.546C312.855 110.746 308.089 112.379 306.255 113.546C299.091 118.721 298.923 124.984 299.743 127.509C299.751 127.534 299.761 127.558 299.774 127.582L305.255 138.046C306.855 140.846 306.589 143.546 306.255 144.546C305.055 148.546 302.089 148.213 300.755 147.546C298.355 145.946 298.755 142.546 299.255 141.046Z" fill="white"/>
<path d="M341.525 112.015C343.692 111.849 347.925 113.015 347.525 119.015C347.025 123.349 344.025 132.915 336.025 136.515C334.525 137.015 331.025 137.015 329.025 137.015V137.515C328.359 143.515 329.726 152.715 340.525 141.515C341.525 140.515 342.925 139.815 340.525 145.015C339.692 147.015 336.225 151.715 329.025 154.515C326.525 155.349 321.325 155.515 320.525 149.515C319.359 144.182 320.125 130.215 332.525 117.015C334.192 115.349 338.325 112.015 341.525 112.015ZM341.636 123.018C342.136 120.852 342.135 117.219 338.136 120.018C336.636 121.018 332.936 125.118 330.136 133.518C333.136 133.851 339.636 132.218 341.636 123.018Z" fill="white"/>
<path d="M131.005 0.720871C131.029 0.589501 131.041 0.523817 131.054 0.505429C131.094 0.449989 131.177 0.449989 131.216 0.505429C131.23 0.523817 131.241 0.589501 131.265 0.72087L132.538 7.78128C132.812 9.30273 132.949 10.0635 133.2 10.7356C133.917 12.6582 135.346 14.2316 137.191 15.1304C137.836 15.4446 138.58 15.6542 140.068 16.0732L144.684 17.3729C144.77 17.3973 144.814 17.4094 144.83 17.4228C144.878 17.4628 144.878 17.5372 144.83 17.5772C144.814 17.5906 144.77 17.6027 144.684 17.6271L140.068 18.9268C138.58 19.3458 137.836 19.5554 137.191 19.8696C135.346 20.7684 133.917 22.3418 133.2 24.2644C132.949 24.9365 132.812 25.6973 132.538 27.2187L131.265 34.2791C131.241 34.4105 131.23 34.4762 131.216 34.4946C131.177 34.55 131.094 34.55 131.054 34.4946C131.041 34.4762 131.029 34.4105 131.005 34.2791L129.733 27.2187C129.459 25.6973 129.322 24.9365 129.071 24.2644C128.353 22.3418 126.924 20.7684 125.08 19.8696C124.435 19.5554 123.691 19.3458 122.203 18.9268L117.586 17.6271C117.5 17.6027 117.457 17.5906 117.441 17.5772C117.392 17.5372 117.392 17.4628 117.441 17.4228C117.457 17.4094 117.5 17.3973 117.586 17.3729L122.203 16.0732C123.691 15.6542 124.435 15.4446 125.08 15.1304C126.924 14.2316 128.353 12.6582 129.071 10.7356C129.322 10.0635 129.459 9.30273 129.733 7.78128L131.005 0.720871Z" fill="white"/>
<path d="M363.005 45.7506C363.029 45.6143 363.041 45.5462 363.054 45.5277C363.094 45.4717 363.177 45.4717 363.217 45.5277C363.23 45.5462 363.242 45.6143 363.265 45.7506L363.85 49.1275C364.113 50.6449 364.245 51.4036 364.49 52.0753C365.191 53.9966 366.601 55.5765 368.431 56.4903C369.071 56.8097 369.81 57.0261 371.288 57.4589L372.703 57.8733C372.786 57.8977 372.828 57.9099 372.844 57.9233C372.891 57.9633 372.891 58.0367 372.844 58.0767C372.828 58.0901 372.786 58.1023 372.703 58.1267L371.288 58.5411C369.81 58.9739 369.071 59.1903 368.431 59.5097C366.601 60.4235 365.191 62.0034 364.49 63.9247C364.245 64.5964 364.113 65.3551 363.85 66.8725L363.265 70.2494C363.242 70.3857 363.23 70.4538 363.217 70.4723C363.177 70.5283 363.094 70.5283 363.054 70.4723C363.041 70.4538 363.029 70.3857 363.005 70.2494L362.42 66.8725C362.157 65.3551 362.026 64.5964 361.781 63.9247C361.079 62.0034 359.669 60.4235 357.839 59.5097C357.2 59.1903 356.461 58.9739 354.983 58.5411L353.568 58.1267C353.485 58.1023 353.443 58.0901 353.427 58.0767C353.379 58.0367 353.379 57.9633 353.427 57.9233C353.443 57.9099 353.485 57.8977 353.568 57.8733L354.983 57.4589C356.461 57.0261 357.2 56.8097 357.839 56.4903C359.669 55.5765 361.079 53.9966 361.781 52.0753C362.026 51.4036 362.157 50.6449 362.42 49.1275L363.005 45.7506Z" fill="white"/>
<path d="M292.505 202.729C292.529 202.596 292.541 202.53 292.554 202.511C292.594 202.456 292.677 202.456 292.716 202.511C292.73 202.53 292.742 202.596 292.765 202.729L293.223 205.297C293.494 206.817 293.63 207.578 293.879 208.25C294.592 210.172 296.016 211.747 297.857 212.65C298.501 212.966 299.244 213.177 300.729 213.6L301.689 213.873C301.775 213.897 301.817 213.91 301.834 213.923C301.882 213.963 301.882 214.037 301.834 214.077C301.817 214.09 301.775 214.103 301.689 214.127L300.729 214.4C299.244 214.823 298.501 215.034 297.857 215.35C296.016 216.253 294.592 217.828 293.879 219.75C293.63 220.422 293.494 221.183 293.223 222.703L292.765 225.271C292.742 225.404 292.73 225.47 292.716 225.489C292.677 225.544 292.594 225.544 292.554 225.489C292.541 225.47 292.529 225.404 292.505 225.271L292.047 222.703C291.776 221.183 291.641 220.422 291.391 219.75C290.678 217.828 289.254 216.253 287.413 215.35C286.77 215.034 286.027 214.823 284.541 214.4L283.581 214.127C283.496 214.103 283.453 214.09 283.437 214.077C283.389 214.037 283.389 213.963 283.437 213.923C283.453 213.91 283.496 213.897 283.581 213.873L284.541 213.6C286.027 213.177 286.77 212.966 287.413 212.65C289.254 211.747 290.678 210.172 291.391 208.25C291.641 207.578 291.776 206.817 292.047 205.297L292.505 202.729Z" fill="white"/>
<path d="M164.339 172.216C119.134 185.841 90.7822 180.32 81.95 175.739C81.8642 175.695 81.7808 175.791 81.8235 175.877C89.13 190.682 114.348 194.476 126.114 194.517C140.494 195.373 170.768 185.093 184.107 179.846C200.327 173.156 221.363 172.355 229.853 172.791C253.442 173.538 270.131 180.46 276.029 183.758C279.465 185.757 281.511 184.325 279.611 181.377C279.608 181.373 279.605 181.369 279.602 181.365C267.236 167.371 238.788 164.403 226.109 164.668C202.92 163.934 179.491 167.65 164.339 172.216Z" fill="white"/>
<path d="M197.058 11.4041C203.059 6.57079 219.159 -0.195053 235.558 11.4041C237.546 13.061 241.706 18.0434 242.543 24.7784C242.553 24.8604 242.582 24.9384 242.63 25.0056C243.846 26.6984 246.814 29.796 249.558 29.4041C251.393 29.0703 255.959 28.0035 259.558 26.4041C260.392 26.0711 262.259 25.8056 263.058 27.4041C263.555 28.3974 264.247 30.7718 263.082 32.3712C263.066 32.3931 263.053 32.4148 263.04 32.4387C261.104 36.0977 253.478 42.6385 237.936 41.182C237.397 41.1315 237.162 41.8164 237.645 42.0606C240.154 43.3288 243.653 44.7047 246.058 44.4041L253.023 43.4091C253.046 43.4057 253.069 43.404 253.093 43.4043C253.938 43.416 255.557 43.8282 255.558 45.4041C255.558 45.9043 255.056 47.1044 253.058 47.9041C250.609 48.5571 244.608 49.4656 239.852 47.9983C239.671 47.9425 239.473 47.9877 239.344 48.1262C237.04 50.5987 234.142 56.446 239.52 61.8655C239.545 61.8906 239.572 61.9128 239.601 61.932C244.781 65.2917 254.855 74.9388 254.058 86.9041C253.893 92.6901 251.299 105.199 242.28 109.305C242.141 109.369 241.981 109.362 241.845 109.293C239.269 107.997 233.449 106.356 228.821 109.234C228.659 109.335 228.456 109.343 228.287 109.254C226.155 108.127 221.323 106.771 216.794 109.27C216.647 109.351 216.469 109.359 216.316 109.286C213.311 107.856 206.859 106.043 202.558 109.027C202.294 109.21 201.912 109.135 201.702 108.893C201.141 108.247 200.019 107.409 198.194 107.017C197.875 106.949 197.681 106.61 197.806 106.308L205.058 88.9041C206.391 85.2371 206.155 77.9048 194.558 77.9041C192.892 78.0707 189.159 78.7048 187.558 79.9041C185.558 81.4039 178.558 85.9027 174.058 85.4041C172.642 85.4041 168.732 84.6018 163.926 81.4855C163.573 81.2571 163.13 81.5239 163.236 81.9301C163.914 84.5367 166.581 88.8109 173.558 90.9041C175.725 91.405 179.356 94.1067 176.558 100.904L172.89 110.533C172.748 110.905 172.239 110.977 171.971 110.681C169.896 108.391 165.182 105.459 158.818 107.806C158.657 107.865 158.48 107.847 158.344 107.745C150.13 101.58 135.3 83.0745 140.058 56.9041C140.353 55.283 141.559 53.2038 143.558 52.4041C144.64 52.0019 147.762 54.0086 154.558 62.4041C156.059 64.0709 160.759 67.304 167.558 66.9041C171.226 66.5705 179.859 65.5038 185.058 63.9041C189.012 63.0806 198.237 61.9319 203.858 63.8344C203.987 63.8782 204.129 63.8726 204.241 63.7944C204.865 63.3587 205.5 62.2461 204.101 60.4588C204.073 60.423 204.041 60.3917 204.004 60.365C199.842 57.3569 192.121 50.4529 191.071 47.936C191.062 47.9134 191.053 47.8947 191.04 47.8734C189.867 45.8482 187.456 40.3731 187.058 34.4041C186.725 29.5702 188.259 18.2036 197.058 11.4041ZM229.794 24.4597C229.392 20.8928 226.618 18.2767 223.6 18.6169C220.582 18.9579 218.461 22.1261 218.864 25.6931C219.267 29.2598 222.04 31.8752 225.058 31.5349C228.076 31.1938 230.197 28.0263 229.794 24.4597Z" fill="white"/>
<path d="M249.555 29.405C246.821 29.7955 243.865 26.7222 242.641 25.0255C242.584 24.9466 242.507 24.8836 242.414 24.8544C240.5 24.2533 239.381 27.278 239.055 28.905C238.655 31.305 237.555 32.905 237.055 33.405C232.655 37.005 231.555 38.905 231.555 39.405V40.8555C231.555 40.8884 231.559 40.9215 231.565 40.9537C232.395 44.9239 237.231 47.241 239.555 47.905C244.355 49.505 250.555 48.5716 253.055 47.905C255.055 47.105 255.555 45.905 255.555 45.405C255.555 43.827 253.934 43.4162 253.09 43.4052C253.067 43.4049 253.044 43.4067 253.02 43.41L246.055 44.405C243.65 44.7057 240.151 43.3297 237.642 42.0615C237.159 41.8173 237.394 41.1324 237.933 41.183C253.476 42.6401 261.101 36.0989 263.037 32.4397C263.05 32.4158 263.064 32.3939 263.08 32.372C264.246 30.7722 263.552 28.3981 263.055 27.405C262.255 25.805 260.389 26.0716 259.555 26.405C255.955 28.005 251.389 29.0716 249.555 29.405Z" fill="white"/>
<circle cx="163.635" cy="47.5" r="2.5" fill="white"/>
<circle cx="109.635" cy="85.5" r="2.5" fill="white"/>
</svg>
